<?xml version="1.0" encoding="UTF-8"?>
<svg xmlns="http://www.w3.org/2000/svg" viewBox="0 0 99.93 65.76">
  <g id="Piste">
    <g>
      <path d="M84.18,14.24V51.52c0,1,.81,1.81,1.81,1.81s1.81-.81,1.81-1.81V14.24c0-1-.81-1.81-1.81-1.81s-1.81,.81-1.81,1.81" style="fill: #fff;"/>
      <path d="M11.95,14.24V51.52c0,1,.81,1.81,1.81,1.81s1.81-.81,1.81-1.81V14.24c0-1-.81-1.81-1.81-1.81s-1.81,.81-1.81,1.81" style="fill: #fff;"/>
      <path d="M72.15,26.45v12.86c0,1,.81,1.81,1.81,1.81s1.81-.81,1.81-1.81v-12.86c0-1-.81-1.81-1.81-1.81s-1.81,.81-1.81,1.81" style="fill: #fff;"/>
      <path d="M24.02,26.45v12.86c0,1,.81,1.81,1.81,1.81s1.81-.81,1.81-1.81v-12.86c0-1-.81-1.81-1.81-1.81s-1.81,.81-1.81,1.81" style="fill: #fff;"/>
      <path d="M96.3,30.23v5.3c0,1,.81,1.81,1.81,1.81s1.81-.81,1.81-1.81v-5.3c0-1-.81-1.81-1.81-1.81s-1.81,.81-1.81,1.81" style="fill: #fff;"/>
      <path d="M0,30.23v5.3c0,1,.81,1.81,1.81,1.81s1.81-.81,1.81-1.81v-5.3c0-1-.81-1.81-1.81-1.81s-1.81,.81-1.81,1.81" style="fill: #fff;"/>
      <path d="M36.08,18.11v29.54c0,1,.81,1.81,1.81,1.81s1.81-.81,1.81-1.81V18.11c0-1-.81-1.81-1.81-1.81s-1.81,.81-1.81,1.81" style="fill: #fff;"/>
      <path d="M48.1,1.81V63.95c0,1,.81,1.81,1.81,1.81s1.81-.81,1.81-1.81V1.81c0-1-.81-1.81-1.81-1.81s-1.81,.81-1.81,1.81" style="fill: #fff;"/>
      <path d="M60.13,18.11v29.54c0,1,.81,1.81,1.81,1.81s1.81-.81,1.81-1.81V18.11c0-1-.81-1.81-1.81-1.81s-1.81,.81-1.81,1.81" style="fill: #fff;"/>
    </g>
  </g>
  <g id="Droite">
    <path d="M66.41,26.19c-.22-.22-.53-.35-.84-.35h-7.05c-.31,0-.62,.13-.84,.35-.22,.22-.35,.53-.35,.84v5.5c0,.31,.13,.62,.35,.84s.53,.35,.84,.35h7.05c.31,0,.62-.13,.84-.35,.22-.22,.35-.53,.35-.84v-5.5c0-.31-.13-.62-.35-.84Z" style="fill: #4ebbc2;"/>
  </g>
  <g id="Milieu">
    <path d="M54.56,42.78c-.22-.22-.53-.35-.84-.35h-7.05c-.31,0-.62,.13-.84,.35-.22,.22-.35,.53-.35,.84v5.5c0,.31,.13,.62,.35,.84s.53,.35,.84,.35h7.05c.31,0,.62-.13,.84-.35s.35-.53,.35-.84v-5.5c0-.31-.13-.62-.35-.84Z" style="fill: #4ebbc2;"/>
  </g>
  <g id="Gauche">
    <path d="M42.71,31.21c-.22-.22-.53-.35-.84-.35h-7.05c-.31,0-.62,.13-.84,.35-.22,.22-.35,.53-.35,.84v5.5c0,.31,.13,.62,.35,.84,.22,.22,.53,.35,.84,.35h7.05c.31,0,.62-.13,.84-.35,.22-.22,.35-.53,.35-.84v-5.5c0-.31-.13-.62-.35-.84Z" style="fill: #4ebbc2;"/>
  </g>
</svg>