<?xml version="1.0" encoding="utf-8"?>
<!-- Generator: Adobe Illustrator 27.0.0, SVG Export Plug-In . SVG Version: 6.00 Build 0)  -->
<svg version="1.1" id="Calque_1" xmlns="http://www.w3.org/2000/svg" xmlns:xlink="http://www.w3.org/1999/xlink" x="0px" y="0px"
	 viewBox="0 0 85.2 99.2" style="enable-background:new 0 0 85.2 99.2;" xml:space="preserve">
<style type="text/css">
	.st0{fill:#4EBBC2;}
</style>
<g>
	<path class="st0" d="M9.6,17.9c-0.6,0-0.9,0-1.3-0.1c-0.7-0.1-1.4-0.2-1.9-0.4c-1.4-0.6-2.5-1.2-3.3-2.1C1.5,13.9,0.6,12,0.3,10
		C0.1,7.5,0.9,5.1,2.8,3.2l0.1-0.1v0c0,0,0,0,0.1-0.1l0.6-0.6C3.7,2.4,4,2.2,4.2,2c0.1,0,0.2-0.1,0.2-0.1h0.1V1.8
		c0.2-0.1,1-0.6,1.4-0.7c0.9-0.4,1.8-0.6,3-0.7c-1.5,1.3-2.7,3.2-3,5.4c-0.4,2.7,0.4,5.5,2.2,7.5c1.6,1.8,4,3,6.5,3.2
		c-0.3,0.2-0.7,0.4-1,0.6c-0.7,0.4-1.3,0.6-2.3,0.7h-0.5C10.4,17.9,10.2,17.9,9.6,17.9z"/>
	<path class="st0" d="M7.9,0.9c-1.3,1.3-2,3-2.3,4.8C5.1,8.5,6,11.4,7.9,13.4c1.5,1.6,3.4,2.7,5.6,3.2c0,0-0.1,0-0.1,0.1l0,0l0,0
		c-0.6,0.4-1.1,0.5-2.1,0.7H11h-0.3h-0.1h-0.1c-0.3,0.1-0.4,0.1-1,0.1s-0.8,0-1.3-0.1c-0.7-0.1-1.3-0.2-1.8-0.4
		C5,16.5,4,15.8,3.2,15c-1.4-1.3-2.3-3.1-2.5-5C0.4,7.6,1.2,5.3,3,3.5l0.2-0.2V3.2l0.4-0.4C3.8,2.7,4,2.5,4.3,2.3
		c0.1,0,0.1-0.1,0.1-0.1h0.1l0.2-0.1C4.9,2,5.7,1.6,6,1.4h0.1h0.1C6.6,1.2,7.2,1,7.9,0.9 M9.4,0C9.3,0,9.1,0,9,0
		C7.9,0.1,6.8,0.3,5.8,0.7C5.4,0.9,4.6,1.3,4.3,1.5c0,0-0.2,0.1-0.3,0.1C3.7,1.8,3.4,2.1,3.2,2.2C3,2.4,2.6,2.8,2.6,2.8L2.5,3
		C0.6,4.9-0.3,7.5,0,10.1c0.2,2.1,1.2,4,2.7,5.5c1,1,2.1,1.6,3.5,2.1c0.6,0.2,1.3,0.4,2,0.4c0.5,0.1,0.8,0.1,1.4,0.1s0.8,0,1.2-0.1
		c0.1,0,0.3,0,0.3,0c0.1,0,0.1,0,0.3,0c1-0.2,1.7-0.4,2.4-0.8c0.6-0.3,1-0.5,1.5-0.9c0.4-0.3,0.4-0.4,0.4-0.4s-0.1,0-0.4,0
		c-2.6-0.1-5.1-1.2-6.8-3.1C6.7,11,5.9,8.3,6.4,5.7c0.3-2.1,1.4-4.1,3.2-5.5c0.1-0.1,0.1-0.1,0.1-0.1C9.6,0,9.6,0,9.4,0L9.4,0z"/>
</g>
</svg>
