<?xml version="1.0" encoding="utf-8"?>
<!-- Generator: Adobe Illustrator 27.0.0, SVG Export Plug-In . SVG Version: 6.00 Build 0)  -->
<svg version="1.1" id="Calque_1" xmlns="http://www.w3.org/2000/svg" xmlns:xlink="http://www.w3.org/1999/xlink" x="0px" y="0px"
	 viewBox="0 0 85.2 99.2" style="enable-background:new 0 0 85.2 99.2;" xml:space="preserve">
<style type="text/css">
	.st0{fill:#FFFFFF;}
</style>
<g>
	<path class="st0" d="M13,24.2c-0.8,0-1.2,0-1.8-0.1c-1-0.1-1.9-0.3-2.6-0.6c-1.9-0.8-3.4-1.6-4.5-2.8c-2-1.9-3.3-4.4-3.6-7.1
		c-0.4-3.4,0.8-6.7,3.3-9.2l0.1-0.1V4.2c0,0,0,0,0.1-0.1l0.8-0.8C4.9,3.3,5.3,3,5.6,2.7c0.1,0,0.3-0.1,0.3-0.2h0.2l0-0.1
		c0.3-0.2,1.3-0.8,1.9-0.9c1.2-0.5,2.5-0.8,4-1c-2.1,1.8-3.6,4.4-4,7.3c-0.6,3.6,0.5,7.4,3,10.1c2.2,2.5,5.4,4,8.8,4.3
		c-0.4,0.3-0.9,0.5-1.4,0.8c-1,0.6-1.8,0.8-3.1,1h-0.7C14.1,24.2,13.8,24.2,13,24.2z"/>
	<path d="M10.7,1.2C9,3,8,5.3,7.6,7.7c-0.6,3.8,0.5,7.7,3.1,10.5c2,2.2,4.6,3.7,7.6,4.3c0,0-0.1,0-0.1,0.1l0,0l0,0
		c-0.8,0.5-1.5,0.7-2.9,1H15h-0.4h-0.1l-0.1,0c-0.4,0.1-0.6,0.1-1.4,0.1c-0.8,0-1.1,0-1.8-0.1c-0.9-0.1-1.8-0.3-2.4-0.5
		c-1.9-0.7-3.3-1.6-4.4-2.7c-1.9-1.8-3.1-4.2-3.4-6.8c-0.4-3.3,0.7-6.4,3.1-8.8l0.3-0.3V4.4L5,3.8c0.2-0.1,0.5-0.4,0.9-0.7
		C6,3.1,6.1,3,6.1,3h0.1l0.3-0.2c0.3-0.2,1.3-0.7,1.8-0.9l0.1,0l0.1,0C9,1.6,9.8,1.4,10.7,1.2 M12.7,0c-0.1,0-0.4,0-0.5,0
		c-1.5,0.1-3,0.4-4.3,1c-0.6,0.2-1.7,0.8-2,1C5.8,2,5.6,2.2,5.4,2.2C5.1,2.5,4.7,2.8,4.4,3C4.1,3.3,3.6,3.8,3.6,3.8S3.4,4,3.4,4.1
		c-2.6,2.6-3.8,6-3.4,9.6c0.3,2.8,1.6,5.4,3.7,7.4C5,22.4,6.6,23.3,8.4,24c0.8,0.3,1.8,0.5,2.7,0.6c0.7,0.1,1.1,0.1,1.9,0.1
		s1.1,0,1.6-0.1c0.1,0,0.4,0,0.4,0c0.1,0,0.2,0,0.4,0c1.4-0.3,2.3-0.5,3.3-1.1c0.8-0.4,1.4-0.7,2-1.2c0.5-0.4,0.6-0.5,0.5-0.5
		c0,0-0.1,0-0.5,0c-3.5-0.1-6.9-1.6-9.2-4.2C9.1,15,8,11.4,8.6,7.9C9,5,10.5,2.3,12.9,0.5c0.2-0.2,0.2-0.2,0.2-0.2
		C13.1,0,13.1,0,12.7,0L12.7,0z"/>
</g>
</svg>
