<?xml version="1.0" encoding="utf-8"?>
<!-- Generator: Adobe Illustrator 27.0.0, SVG Export Plug-In . SVG Version: 6.00 Build 0)  -->
<svg version="1.1" id="Calque_1" xmlns="http://www.w3.org/2000/svg" xmlns:xlink="http://www.w3.org/1999/xlink" x="0px" y="0px"
	 viewBox="0 0 98.6 97.9" style="enable-background:new 0 0 98.6 97.9;" xml:space="preserve">
<style type="text/css">
	.st0{fill:#FFFFFF;}
</style>
<path class="st0" d="M15.2,5c-0.4,2.8-0.8,5-0.8,5s0.1,0,0.3-0.1c0.8-0.1,1.6-0.1,2.4,0c0.2,0.1,0.3,0.1,0.3,0.1L15.9,0
	C15.9,0,15.6,2.3,15.2,5z"/>
<path class="st0" d="M4.6,4.6c0.1,0.1,6.1,8.1,6.1,8.1s0.1-0.1,0.1-0.1c0.4-0.6,1.1-1.4,1.8-1.8l0.3-0.2L8.8,7.7
	C6.6,6.1,4.8,4.7,4.6,4.6C4.6,4.6,4.6,4.6,4.6,4.6L4.6,4.6z"/>
<path class="st0" d="M23.1,7.6l-4.1,3l0.3,0.2c0.7,0.5,1.4,1.2,1.8,1.8c0.1,0.1,0.1,0.1,0.1,0.1s6.1-8.1,6.1-8.1l0,0
	C27.2,4.6,25.4,6,23.1,7.6z"/>
<path class="st0" d="M15.4,11c-1,0.1-1.9,0.5-2.6,1.1c-1,0.8-1.6,1.9-1.8,3.1c-0.1,0.3-0.1,1,0,1.4c0.1,1,0.6,1.9,1.4,2.7
	c1.5,1.5,3.8,1.9,5.7,1c0.6-0.3,1-0.6,1.4-1c0.7-0.8,1.2-1.7,1.4-2.7c0.1-0.3,0.1-1,0-1.4c-0.3-1.6-1.3-3-2.8-3.7
	C17.2,11,16.3,10.8,15.4,11L15.4,11z"/>
<path class="st0" d="M5,15c-4.3,0.6-5.1,0.8-5,0.8s10.1,1.5,10.1,1.5s0-0.1-0.1-0.3c-0.2-0.8-0.2-1.7,0-2.5c0-0.1,0.1-0.3,0.1-0.3
	S7.8,14.7,5,15z"/>
<path class="st0" d="M21.7,14.3c0,0,0,0.1,0.1,0.3c0.2,0.7,0.2,1.7,0,2.5c0,0.1-0.1,0.3-0.1,0.3l10.1-1.5c0,0,0,0-0.1,0
	s-2.3-0.3-5-0.7C24.1,14.7,21.8,14.3,21.7,14.3L21.7,14.3L21.7,14.3z"/>
<path class="st0" d="M7.7,22.8c-1.7,2.2-3,4.1-3.1,4.1c-0.1,0.1-0.6,0.5,4.1-3l4.1-3l-0.3-0.2c-0.7-0.5-1.4-1.2-1.8-1.8
	c-0.1-0.1-0.1-0.1-0.1-0.1C10.7,18.8,9.4,20.7,7.7,22.8L7.7,22.8z"/>
<path class="st0" d="M21,19c-0.4,0.6-1.1,1.4-1.8,1.8L18.9,21l4,3c2.2,1.6,4.1,3,4.1,3c0.1,0.1,0.1,0.1,0.1,0.1S21,18.9,21,18.8
	C21.1,18.8,21,18.9,21,19L21,19z"/>
<path class="st0" d="M14.4,21.6c0,0,0.3,2.3,0.8,5c0.4,2.8,0.8,5,0.8,5s1.5-10,1.5-10.1c0,0-0.1,0-0.3,0.1c-0.5,0.1-0.7,0.1-1.2,0.1
	s-0.8,0-1.2-0.1C14.4,21.6,14.4,21.6,14.4,21.6L14.4,21.6z"/>
</svg>
