<?xml version="1.0" encoding="utf-8"?>
<!-- Generator: Adobe Illustrator 27.0.0, SVG Export Plug-In . SVG Version: 6.00 Build 0)  -->
<svg version="1.1" id="Calque_1" xmlns="http://www.w3.org/2000/svg" xmlns:xlink="http://www.w3.org/1999/xlink" x="0px" y="0px"
	 viewBox="0 0 98.6 97.9" style="enable-background:new 0 0 98.6 97.9;" xml:space="preserve">
<style type="text/css">
	.st0{fill:#4EBBC2;}
</style>
<path class="st0" d="M13,4.3c-0.3,2.4-0.7,4.3-0.7,4.3s0.1,0,0.3-0.1c0.7-0.1,1.4-0.1,2,0c0.2,0.1,0.3,0.1,0.3,0.1L13.5,0
	C13.5,0,13.3,2,13,4.3z"/>
<path class="st0" d="M3.9,3.9C4,4,9.1,10.8,9.1,10.8l0.1-0.1c0.3-0.5,0.9-1.2,1.5-1.5L11,9L7.5,6.6C5.6,5.2,4.1,4,3.9,3.9L3.9,3.9
	L3.9,3.9z"/>
<path class="st0" d="M19.7,6.5L16.2,9l0.3,0.2c0.6,0.4,1.2,1,1.5,1.5c0.1,0.1,0.1,0.1,0.1,0.1l5.2-6.9l0,0
	C23.2,3.9,21.6,5.1,19.7,6.5z"/>
<path class="st0" d="M13.1,9.4c-0.9,0.1-1.6,0.4-2.2,0.9C10.1,11,9.5,11.9,9.4,13c-0.1,0.3-0.1,0.9,0,1.2c0.1,0.9,0.5,1.6,1.2,2.3
	c1.3,1.3,3.2,1.6,4.9,0.9c0.5-0.3,0.9-0.5,1.2-0.9c0.6-0.7,1-1.4,1.2-2.3c0.1-0.3,0.1-0.9,0-1.2c-0.3-1.4-1.1-2.6-2.4-3.2
	C14.7,9.4,13.9,9.2,13.1,9.4L13.1,9.4z"/>
<path class="st0" d="M4.3,12.8c-3.7,0.5-4.3,0.7-4.3,0.7s8.6,1.3,8.6,1.3s0-0.1-0.1-0.3c-0.2-0.7-0.2-1.4,0-2.1
	c0-0.1,0.1-0.3,0.1-0.3S6.6,12.5,4.3,12.8z"/>
<path class="st0" d="M18.5,12.2c0,0,0,0.1,0.1,0.3c0.2,0.6,0.2,1.4,0,2.1c0,0.1-0.1,0.3-0.1,0.3l8.6-1.3c0,0,0,0-0.1,0
	s-2-0.3-4.3-0.6C20.5,12.5,18.6,12.2,18.5,12.2L18.5,12.2L18.5,12.2z"/>
<path class="st0" d="M6.6,19.4c-1.4,1.9-2.6,3.5-2.6,3.5c-0.1,0.1-0.5,0.4,3.5-2.6l3.5-2.6l-0.3-0.2c-0.6-0.4-1.2-1-1.5-1.5
	C9,16,9,16,9,16C9.1,16,8,17.6,6.6,19.4L6.6,19.4z"/>
<path class="st0" d="M17.9,16.2c-0.3,0.5-0.9,1.2-1.5,1.5l-0.3,0.2l3.4,2.6C21.4,21.8,23,23,23,23c0.1,0.1,0.1,0.1,0.1,0.1
	s-5.2-7-5.2-7.1C18,16,17.9,16.1,17.9,16.2L17.9,16.2z"/>
<path class="st0" d="M12.3,18.4c0,0,0.3,2,0.7,4.3c0.3,2.4,0.7,4.3,0.7,4.3s1.3-8.5,1.3-8.6c0,0-0.1,0-0.3,0.1
	c-0.4,0.1-0.6,0.1-1,0.1c-0.4,0-0.7,0-1-0.1C12.3,18.4,12.3,18.4,12.3,18.4L12.3,18.4z"/>
</svg>
